
      <svg xmlns="http://www.w3.org/2000/svg" viewBox="0 0 932.7 76.7">
        <path fill="#ccc" d="M929.3 66c-41.7-16.5-99.9-29.2-173-37.7a2223.4 2223.4 0 0 0-200.8-12.7v11c76.2 1.8 143 6 199.5 12.6 72.2 8.4 129.5 20.9 170.2 37a5.5 5.5 0 0 0 2 .5 5.5 5.5 0 0 0 2-10.6ZM3.5 66a5.5 5.5 0 1 0 4 10.3c40.8-16.2 98-28.7 170.3-37.1A2192 2192 0 0 1 371 26.8v-11a2177 2177 0 0 0-194.6 12.5C103.3 36.8 45.1 49.5 3.5 66ZM421.7 0a9.3 9.3 0 0 0-6.7 2.4 7.5 7.5 0 0 0-2.5 5.8v.1h3.3a5.6 5.6 0 0 1 1.5-4.1 5.9 5.9 0 0 1 4.3-1.6 5.3 5.3 0 0 1 4.5 2.3 9.3 9.3 0 0 1 1.7 5.7v.4H418v2.6h9.8V15a9.2 9.2 0 0 1-1.7 5.7 5.3 5.3 0 0 1-4.4 2.3 6 6 0 0 1-4.3-1.5 5.6 5.6 0 0 1-1.6-4.2h-3.2v.1a7.3 7.3 0 0 0 2.4 6 9.7 9.7 0 0 0 6.7 2.2 8.8 8.8 0 0 0 7-3 11 11 0 0 0 2.6-7.6v-4.4a11 11 0 0 0-2.7-7.6 8.8 8.8 0 0 0-6.9-3Zm30.6 6.8h-4l-6.6 7.8h-1.5V6.8h-3.3v18.5h3.3v-7.9h1.8l6.7 7.9h4.1l.1-.1-8.3-9.6 7.7-8.8zm13.2-.4a6.7 6.7 0 0 0-3.1.7 6 6 0 0 0-2.3 2l-.5-2.4H457v25.6h3.4v-9a5.7 5.7 0 0 0 2.2 1.7 7.2 7.2 0 0 0 3 .6 6.3 6.3 0 0 0 5.3-2.5 10.2 10.2 0 0 0 1.9-6.4v-.4a12.3 12.3 0 0 0-2-7.2 6.1 6.1 0 0 0-5.3-2.7Zm4 10.3a7.7 7.7 0 0 1-1.3 4.5 4.1 4.1 0 0 1-3.6 1.8 4.7 4.7 0 0 1-2.6-.7 4.7 4.7 0 0 1-1.6-1.7v-9a5 5 0 0 1 1.7-1.8 4.5 4.5 0 0 1 2.4-.6 4 4 0 0 1 3.7 2 9.7 9.7 0 0 1 1.2 5.1Zm23 4.8v-8.9a5.7 5.7 0 0 0-2-4.6 7.6 7.6 0 0 0-5-1.6 7.8 7.8 0 0 0-5.2 1.7 4.4 4.4 0 0 0-1.9 3.7h3.2a2.5 2.5 0 0 1 1-2 4 4 0 0 1 2.7-.8 3.9 3.9 0 0 1 2.8 1 3.4 3.4 0 0 1 1 2.6v1.8h-3.7a10 10 0 0 0-5.8 1.5 4.8 4.8 0 0 0-2.2 4.1 5.4 5.4 0 0 0 1.6 4.1 6 6 0 0 0 4.4 1.5 6.3 6.3 0 0 0 3.3-.9 7.9 7.9 0 0 0 2.4-2.2 11.2 11.2 0 0 0 .1 1.3l.3 1.5h3.5a9.4 9.4 0 0 1-.4-1.8 17.1 17.1 0 0 1-.1-2Zm-3.4-1.8a4.5 4.5 0 0 1-2 2.2 6 6 0 0 1-3.2.9 3.2 3.2 0 0 1-2.3-.7 2.5 2.5 0 0 1-.8-2 3 3 0 0 1 1.3-2.4 5 5 0 0 1 3.2-1h3.8Zm21-4.9h-8.2v-8h-3.3v18.5h3.3v-7.9h8.2v7.9h3.4V6.8h-3.4v8z"/>
      </svg>